<svg width="108" height="107" viewBox="0 0 108 107" fill="none" xmlns="http://www.w3.org/2000/svg">
<path d="M63.87 14.1224C64.0262 14.1684 64.1882 14.1921 64.3511 14.1925C64.7102 14.1922 65.0597 14.0762 65.3477 13.8616C65.6356 13.6471 65.8468 13.3454 65.9499 13.0014L67.8911 6.53787C68.0183 6.11341 67.9716 5.65582 67.7614 5.26576C67.5512 4.8757 67.1946 4.58514 66.7701 4.45797C66.3457 4.33081 65.8881 4.37748 65.498 4.5877C65.108 4.79792 64.8174 5.15448 64.6902 5.57895L62.749 12.0425C62.686 12.2527 62.6651 12.4732 62.6873 12.6915C62.7096 12.9097 62.7746 13.1215 62.8787 13.3146C62.9828 13.5078 63.1239 13.6785 63.294 13.8171C63.4641 13.9557 63.6598 14.0594 63.87 14.1224Z" fill="#436FC0"/>
<path d="M74.8847 16.7956C75.2737 17.0073 75.7309 17.0558 76.1557 16.9304C76.5804 16.8051 76.9381 16.5163 77.15 16.1274L80.3843 10.17C80.489 9.97718 80.5548 9.76559 80.5778 9.54734C80.6007 9.32909 80.5805 9.10845 80.5182 8.89802C80.4559 8.68759 80.3528 8.49148 80.2147 8.3209C80.0767 8.15032 79.9064 8.00861 79.7135 7.90385C79.5207 7.7991 79.3091 7.73335 79.0908 7.71036C78.8726 7.68738 78.652 7.7076 78.4415 7.76989C78.2311 7.83217 78.035 7.9353 77.8644 8.07337C77.6938 8.21144 77.5521 8.38176 77.4474 8.5746L74.2131 14.5303C74.1084 14.7231 74.0428 14.9347 74.0199 15.1529C73.997 15.3711 74.0173 15.5917 74.0796 15.802C74.142 16.0124 74.2452 16.2084 74.3833 16.3789C74.5214 16.5494 74.6918 16.691 74.8847 16.7956Z" fill="#436FC0"/>
<path d="M87.3925 22.243C87.6359 22.2432 87.8763 22.1902 88.0971 22.0878C88.3179 21.9853 88.5136 21.8359 88.6705 21.6499L93.0625 16.4343C93.2072 16.267 93.3172 16.0727 93.3862 15.8626C93.4552 15.6525 93.4818 15.4307 93.4644 15.2102C93.447 14.9898 93.386 14.7749 93.285 14.5782C93.1839 14.3815 93.0448 14.2068 92.8757 14.0642C92.7066 13.9217 92.5109 13.8141 92.3 13.7478C92.089 13.6815 91.8669 13.6577 91.6467 13.6779C91.4264 13.698 91.2124 13.7617 91.017 13.8652C90.8215 13.9687 90.6486 14.11 90.5082 14.2809L86.1162 19.4965C85.9113 19.7399 85.7802 20.0366 85.7382 20.3519C85.6963 20.6673 85.7452 20.988 85.8792 21.2764C86.0133 21.5649 86.2269 21.8091 86.495 21.9803C86.763 22.1515 87.0744 22.2427 87.3925 22.243Z" fill="#436FC0"/>
<path d="M97.5813 30.5422C97.9742 30.5422 98.3545 30.4038 98.6555 30.1513L103.834 25.8077C104.163 25.5199 104.366 25.1147 104.4 24.679C104.433 24.2433 104.295 23.8117 104.014 23.4769C103.733 23.1421 103.332 22.9306 102.898 22.8879C102.463 22.8452 102.028 22.9746 101.688 23.2483L96.5088 27.5919C96.2468 27.8125 96.0589 28.1082 95.9706 28.4391C95.8823 28.7699 95.8978 29.12 96.015 29.4417C96.1322 29.7635 96.3455 30.0415 96.6259 30.238C96.9064 30.4346 97.2405 30.5402 97.5829 30.5405L97.5813 30.5422Z" fill="#436FC0"/>
<path d="M19.4808 21.6499C19.6212 21.8208 19.7942 21.9621 19.9896 22.0656C20.185 22.1691 20.3991 22.2328 20.6193 22.253C20.8396 22.2731 21.0616 22.2494 21.2726 22.183C21.4836 22.1167 21.6793 22.0092 21.8484 21.8666C22.0175 21.7241 22.1566 21.5493 22.2576 21.3526C22.3587 21.1559 22.4196 20.9411 22.437 20.7206C22.4544 20.5001 22.4278 20.2784 22.3588 20.0682C22.2899 19.8581 22.1798 19.6638 22.0352 19.4965L17.6432 14.2809C17.3557 13.9485 16.9489 13.7428 16.5108 13.7083C16.0728 13.6738 15.6388 13.8132 15.3028 14.0965C14.9668 14.3797 14.756 14.7839 14.7159 15.2215C14.6759 15.659 14.8099 16.0948 15.0888 16.4343L19.4808 21.6499Z" fill="#436FC0"/>
<path d="M31.0014 16.1235C31.1061 16.3163 31.2477 16.4866 31.4181 16.6248C31.5886 16.7629 31.7846 16.8661 31.995 16.9284C32.2053 16.9908 32.4259 17.0111 32.6441 16.9882C32.8623 16.9653 33.0739 16.8997 33.2667 16.795C33.4596 16.6904 33.6299 16.5488 33.768 16.3783C33.9062 16.2078 34.0093 16.0118 34.0717 15.8015C34.1341 15.5911 34.1544 15.3705 34.1315 15.1523C34.1086 14.9341 34.043 14.7226 33.9383 14.5297L30.704 8.5707C30.4925 8.18124 30.1349 7.89177 29.7099 7.76599C29.2849 7.6402 28.8273 7.68839 28.4379 7.89995C28.0484 8.11152 27.759 8.46913 27.6332 8.89412C27.5074 9.31911 27.5556 9.77666 27.7671 10.1661L31.0014 16.1235Z" fill="#436FC0"/>
<path d="M9.54927 30.1932C9.722 30.3355 9.92157 30.4417 10.1361 30.5055C10.3507 30.5692 10.5759 30.5891 10.7983 30.5642C11.0207 30.5392 11.2359 30.4697 11.4309 30.36C11.626 30.2502 11.797 30.1024 11.9339 29.9252C12.0707 29.7481 12.1705 29.5453 12.2275 29.3288C12.2844 29.1123 12.2972 28.8866 12.2652 28.6651C12.2332 28.4436 12.157 28.2307 12.0411 28.0392C11.9253 27.8477 11.7721 27.6815 11.5907 27.5503L6.64911 23.733C6.47639 23.5906 6.27682 23.4844 6.06225 23.4207C5.84769 23.357 5.62251 23.337 5.40008 23.362C5.17765 23.387 4.96251 23.4564 4.76744 23.5662C4.57237 23.6759 4.40134 23.8238 4.26451 24.0009C4.12768 24.1781 4.02785 24.3809 3.97093 24.5973C3.91401 24.8138 3.90118 25.0395 3.93318 25.261C3.96519 25.4826 4.04139 25.6954 4.15725 25.8869C4.27311 26.0784 4.42627 26.2447 4.60764 26.3759L9.54927 30.1932Z" fill="#436FC0"/>
<path d="M42.201 13.0014C42.304 13.3454 42.5152 13.6471 42.8032 13.8616C43.0912 14.0762 43.4406 14.1922 43.7997 14.1925C43.9626 14.1921 44.1246 14.1684 44.2809 14.1224C44.491 14.0594 44.6868 13.9557 44.8568 13.8171C45.0269 13.6785 45.1681 13.5078 45.2721 13.3146C45.3762 13.1215 45.4413 12.9097 45.4635 12.6914C45.4858 12.4732 45.4648 12.2527 45.4018 12.0425L43.4606 5.57894C43.3976 5.36877 43.2939 5.17306 43.1553 5.00298C43.0167 4.8329 42.8459 4.69179 42.6528 4.5877C42.4597 4.4836 42.2479 4.41857 42.0297 4.39632C41.8114 4.37406 41.5909 4.39501 41.3807 4.45797C41.1705 4.52094 40.9748 4.62468 40.8047 4.76328C40.6347 4.90188 40.4935 5.07262 40.3895 5.26576C40.2854 5.45889 40.2203 5.67064 40.1981 5.88891C40.1758 6.10718 40.1968 6.32769 40.2597 6.53787L42.201 13.0014Z" fill="#436FC0"/>
<path d="M54.0759 13.3605C54.5189 13.3605 54.9439 13.1845 55.2572 12.8712C55.5705 12.5579 55.7465 12.133 55.7465 11.6899V5.00751C55.7465 4.56444 55.5705 4.13952 55.2572 3.82622C54.9439 3.51292 54.5189 3.33691 54.0759 3.33691C53.6328 3.33691 53.2079 3.51292 52.8946 3.82622C52.5813 4.13952 52.4053 4.56444 52.4053 5.00751V11.6899C52.4053 12.133 52.5813 12.5579 52.8946 12.8712C53.2079 13.1845 53.6328 13.3605 54.0759 13.3605Z" fill="#436FC0"/>
<path d="M31.367 65.2546C22.1466 61.0469 14.0551 54.7131 7.75649 46.7728C10.9665 42.7634 14.6244 39.1341 18.6588 35.9557C19.0075 35.6821 19.2332 35.2811 19.2863 34.8411C19.3394 34.4011 19.2156 33.958 18.942 33.6093C18.6684 33.2606 18.2675 33.0349 17.8274 32.9818C17.3874 32.9287 16.9443 33.0525 16.5956 33.3261C12.0051 36.9471 7.87822 41.12 4.30838 45.7504C4.08188 46.0431 3.95898 46.4027 3.95898 46.7728C3.95898 47.1429 4.08188 47.5025 4.30838 47.7952C11.0597 56.6396 19.886 63.6844 30.0072 68.3068C30.4119 68.4871 30.8717 68.4993 31.2854 68.3406C31.6991 68.1819 32.0329 67.8654 32.2132 67.4606C32.3935 67.0559 32.4057 66.5961 32.247 66.1824C32.0883 65.7687 31.7718 65.4349 31.367 65.2546Z" fill="#436FC0"/>
<path d="M103.844 47.7949C104.071 47.5022 104.194 47.1426 104.194 46.7725C104.194 46.4024 104.071 46.0428 103.844 45.7501C91.1945 29.4117 73.0535 20.043 54.0755 20.043C42.6223 20.0892 31.4221 23.4164 21.8012 29.6305C21.4277 29.8689 21.1642 30.2459 21.0686 30.6785C20.9731 31.1112 21.0533 31.5641 21.2917 31.9376C21.53 32.3111 21.907 32.5746 22.3397 32.6702C22.7723 32.7658 23.2253 32.6855 23.5988 32.4472C27.8386 29.7429 32.4113 27.6 37.2024 26.0722C34.1105 28.584 31.6206 31.7567 29.9157 35.3571C28.2108 38.9574 27.3341 42.894 27.3501 46.8776C27.3662 50.8613 28.2745 54.7907 30.0083 58.3772C31.7421 61.9638 34.2575 65.1163 37.3695 67.6032V70.1609C36.0403 70.1609 34.7655 70.6889 33.8256 71.6288C32.8857 72.5687 32.3577 73.8435 32.3577 75.1727C32.3577 76.5019 32.8857 77.7767 33.8256 78.7166C34.7655 79.6565 36.0403 80.1845 37.3695 80.1845H70.7814C71.2245 80.1845 71.6494 80.3605 71.9627 80.6738C72.276 80.9871 72.452 81.412 72.452 81.8551C72.452 82.2981 72.276 82.7231 71.9627 83.0364C71.6494 83.3497 71.2245 83.5257 70.7814 83.5257H37.3695C36.9264 83.5257 36.5015 83.7017 36.1882 84.015C35.8749 84.3283 35.6989 84.7532 35.6989 85.1963C35.6989 85.6393 35.8749 86.0643 36.1882 86.3776C36.5015 86.6909 36.9264 86.8669 37.3695 86.8669C37.3695 91.2976 39.1296 95.5468 42.2626 98.6798C45.3955 101.813 49.6448 103.573 54.0755 103.573C58.5062 103.573 62.7554 101.813 65.8884 98.6798C69.0214 95.5468 70.7814 91.2976 70.7814 86.8669C71.7508 86.8712 72.7004 86.593 73.5142 86.0665C74.3281 85.5399 74.9709 84.7877 75.3643 83.9018C75.7576 83.0159 75.8844 82.0346 75.7292 81.0777C75.574 80.1209 75.1434 79.23 74.4902 78.5139C75.1434 77.7977 75.574 76.9068 75.7292 75.95C75.8844 74.9932 75.7576 74.0119 75.3643 73.126C74.9709 72.24 74.3281 71.4878 73.5142 70.9613C72.7004 70.4347 71.7508 70.1566 70.7814 70.1609V67.6032C73.9177 65.1142 76.449 61.9468 78.1851 58.3388C79.9212 54.7309 80.817 50.7764 80.805 46.7725C80.8011 44.8534 80.5916 42.9403 80.1802 41.0658C80.1354 40.8496 80.0481 40.6444 79.9235 40.4621C79.7988 40.2799 79.6393 40.1241 79.4541 40.0039C79.2689 39.8837 79.0617 39.8013 78.8445 39.7617C78.6273 39.722 78.4043 39.7258 78.1886 39.7729C77.9729 39.8199 77.7686 39.9092 77.5876 40.0357C77.4066 40.1622 77.2525 40.3233 77.1341 40.5097C77.0158 40.6961 76.9355 40.9041 76.8981 41.1217C76.8606 41.3393 76.8667 41.5622 76.9159 41.7774C77.2766 43.4181 77.4603 45.0927 77.4638 46.7725C77.4734 50.4006 76.632 53.9804 75.0073 57.2244C73.3825 60.4684 71.0197 63.2862 68.1085 65.4515C67.901 65.6071 67.7326 65.8089 67.6166 66.0408C67.5006 66.2728 67.4403 66.5286 67.4403 66.788V70.1609H60.7579V58.3331C63.4974 56.7604 65.5882 54.2645 66.6563 51.2917C67.7245 48.319 67.7003 45.0632 66.5883 42.1066C66.4784 41.8131 66.2883 41.5565 66.0396 41.3659C65.7908 41.1754 65.4935 41.0586 65.1816 41.029C64.8696 40.9968 64.5549 41.0541 64.2742 41.194C63.9935 41.3339 63.7584 41.5507 63.5962 41.8192C63.3028 42.3103 62.8871 42.717 62.3896 42.9996C61.8922 43.2821 61.33 43.4309 60.7579 43.4313C59.8717 43.4313 59.0219 43.0793 58.3953 42.4527C57.7687 41.8261 57.4167 40.9763 57.4167 40.0901C57.4167 39.5179 57.565 38.9555 57.8473 38.4577C58.1296 37.96 58.5361 37.5439 59.0271 37.2501C59.2944 37.0867 59.5103 36.8514 59.6502 36.5712C59.7902 36.2909 59.8485 35.9769 59.8185 35.6651C59.7886 35.3533 59.6715 35.0561 59.4808 34.8076C59.29 34.5592 59.0333 34.3693 58.7398 34.2598C56.7195 33.4999 54.545 33.2418 52.403 33.5076C50.261 33.7735 48.2156 34.5553 46.4423 35.786C44.6691 37.0166 43.2212 38.6594 42.2228 40.573C41.2245 42.4867 40.7056 44.6141 40.7107 46.7725C40.72 49.1148 41.3416 51.414 42.5138 53.4419C43.6859 55.4698 45.368 57.1559 47.3931 58.3331V70.1609H40.7107V66.7846C40.7107 66.5253 40.6503 66.2695 40.5343 66.0375C40.4183 65.8055 40.2499 65.6038 40.0425 65.4481C37.2406 63.3411 34.9485 60.6307 33.3361 57.5178C31.7237 54.4048 30.8322 50.9691 30.7276 47.4649C30.623 43.9607 31.308 40.4778 32.7319 37.2743C34.1558 34.0707 36.2821 31.2285 38.9533 28.9581C41.6245 26.6876 44.7723 25.0472 48.1634 24.1582C51.5546 23.2692 55.1023 23.1544 58.5438 23.8224C61.9854 24.4903 65.2326 25.9239 68.045 28.0169C70.8574 30.1099 73.1629 32.8088 74.7909 35.9136C74.8929 36.1079 75.0322 36.2802 75.2008 36.4206C75.3694 36.5611 75.564 36.6669 75.7735 36.7322C75.983 36.7974 76.2033 36.8207 76.4218 36.8008C76.6403 36.7809 76.8528 36.7181 77.047 36.6161C77.2413 36.5141 77.4136 36.3748 77.554 36.2062C77.6944 36.0377 77.8003 35.8431 77.8655 35.6336C77.9308 35.424 77.9541 35.2037 77.9342 34.9852C77.9143 34.7667 77.8515 34.5543 77.7495 34.36C76.0782 31.1766 73.7842 28.3616 71.0036 26.0822C82.6105 29.9615 92.8278 37.1541 100.394 46.7725C94.0958 54.7128 86.0044 61.0467 76.7839 65.2543C76.5835 65.3436 76.4026 65.4715 76.2516 65.6307C76.1007 65.7899 75.9825 65.9773 75.9039 66.1821C75.8254 66.387 75.7879 66.6053 75.7937 66.8246C75.7995 67.0439 75.8485 67.26 75.9377 67.4604C76.027 67.6608 76.1549 67.8416 76.3141 67.9926C76.4733 68.1436 76.6607 68.2618 76.8655 68.3403C77.0704 68.4189 77.2887 68.4564 77.508 68.4506C77.7273 68.4448 77.9434 68.3958 78.1438 68.3065C88.2655 63.6844 97.0925 56.6396 103.844 47.7949ZM54.0755 100.232C50.5321 100.228 47.1351 98.8183 44.6295 96.3128C42.124 93.8073 40.7147 90.4102 40.7107 86.8669H67.4403C67.4363 90.4102 66.0269 93.8073 63.5214 96.3128C61.0159 98.8183 57.6188 100.228 54.0755 100.232ZM72.452 75.1727C72.452 75.6158 72.276 76.0407 71.9627 76.354C71.6494 76.6673 71.2245 76.8433 70.7814 76.8433H37.3695C36.9264 76.8433 36.5015 76.6673 36.1882 76.354C35.8749 76.0407 35.6989 75.6158 35.6989 75.1727C35.6989 74.7296 35.8749 74.3047 36.1882 73.9914C36.5015 73.6781 36.9264 73.5021 37.3695 73.5021H70.7814C71.2245 73.5021 71.6494 73.6781 71.9627 73.9914C72.276 74.3047 72.452 74.7296 72.452 75.1727ZM49.782 55.8171C47.7327 54.8382 46.0765 53.1923 45.0849 51.1491C44.0932 49.1058 43.8249 46.7864 44.3237 44.5707C44.8226 42.355 46.0592 40.3744 47.8309 38.9534C49.6026 37.5323 51.8043 36.7551 54.0755 36.7489C54.3678 36.7489 54.6602 36.7623 54.9492 36.7874C54.2267 38.0594 53.9416 39.5333 54.1376 40.9829C54.3336 42.4326 54.9998 43.7779 56.0341 44.8124C57.0684 45.8469 58.4136 46.5134 59.8632 46.7096C61.3129 46.9059 62.7868 46.621 64.059 45.8988C64.0857 46.1878 64.0991 46.4802 64.0991 46.7725C64.0913 48.6664 63.5495 50.5198 62.5359 52.1196C61.5223 53.7195 60.078 55.0011 58.3689 55.8171C58.0846 55.9525 57.8444 56.1655 57.6759 56.4316C57.5074 56.6976 57.4176 57.0058 57.4167 57.3207V70.1609H50.7343V57.3257C50.7343 57.01 50.6449 56.7007 50.4764 56.4337C50.3078 56.1667 50.0671 55.9529 49.782 55.8171Z" fill="#436FC0"/>
<path d="M88.6705 69.5047C88.5287 69.337 88.3552 69.1988 88.16 69.0982C87.9647 68.9975 87.7516 68.9362 87.5327 68.9179C87.3138 68.8996 87.0935 68.9246 86.8842 68.9915C86.675 69.0583 86.481 69.1657 86.3133 69.3076C86.1456 69.4494 86.0074 69.6229 85.9067 69.8181C85.8061 70.0133 85.7448 70.2265 85.7265 70.4453C85.7082 70.6642 85.7332 70.8846 85.8001 71.0938C85.8669 71.303 85.9743 71.4971 86.1162 71.6648L90.5081 76.882C90.6497 77.0498 90.8228 77.188 91.0177 77.2888C91.2126 77.3896 91.4255 77.451 91.6442 77.4695C91.8628 77.4881 92.083 77.4634 92.2921 77.3968C92.5012 77.3303 92.6951 77.2232 92.8629 77.0817C93.0306 76.9402 93.1688 76.767 93.2696 76.5721C93.3704 76.3772 93.4318 76.1643 93.4504 75.9457C93.4689 75.727 93.4442 75.5069 93.3776 75.2977C93.3111 75.0886 93.204 74.8947 93.0625 74.727L88.6705 69.5047Z" fill="#436FC0"/>
<path d="M98.6555 61.0062C98.4889 60.8561 98.2937 60.7412 98.0816 60.6681C97.8696 60.5951 97.645 60.5656 97.4213 60.5812C97.1976 60.5969 96.9793 60.6574 96.7795 60.7592C96.5796 60.861 96.4023 61.002 96.2582 61.1737C96.114 61.3455 96.0059 61.5446 95.9403 61.759C95.8747 61.9735 95.8529 62.1989 95.8763 62.422C95.8997 62.645 95.9677 62.8611 96.0764 63.0572C96.1851 63.2534 96.3321 63.4257 96.5088 63.5638L101.688 67.9074C102.028 68.18 102.462 68.3085 102.896 68.2656C103.33 68.2227 103.73 68.0116 104.011 67.6776C104.291 67.3436 104.43 66.9131 104.397 66.4781C104.365 66.0431 104.163 65.6381 103.836 65.3497L98.6555 61.0062Z" fill="#436FC0"/>
<path d="M19.4811 69.5047L15.0891 74.7203C14.8034 75.059 14.6639 75.4974 14.7013 75.939C14.7387 76.3806 14.9501 76.7892 15.2888 77.075C15.6275 77.3608 16.0659 77.5003 16.5075 77.4629C16.9491 77.4254 17.3577 77.2141 17.6435 76.8754L22.0355 71.6648C22.1802 71.4975 22.2902 71.3032 22.3592 71.0931C22.4282 70.8829 22.4547 70.6612 22.4374 70.4407C22.42 70.2202 22.359 70.0054 22.2579 69.8087C22.1569 69.6119 22.0178 69.4372 21.8487 69.2947C21.6796 69.1521 21.4839 69.0446 21.2729 68.9783C21.0619 68.9119 20.8399 68.8882 20.6196 68.9083C20.3994 68.9285 20.1854 68.9922 19.9899 69.0957C19.7945 69.1992 19.6216 69.3405 19.4811 69.5114V69.5047Z" fill="#436FC0"/>
<path d="M9.54927 60.9625L4.60764 64.7781C4.42627 64.9093 4.27311 65.0756 4.15725 65.2671C4.04139 65.4586 3.96519 65.6714 3.93318 65.8929C3.90118 66.1145 3.91401 66.3402 3.97093 66.5566C4.02785 66.7731 4.12768 66.9759 4.26451 67.1531C4.40134 67.3302 4.57237 67.478 4.76744 67.5878C4.96251 67.6975 5.17765 67.767 5.40008 67.792C5.62251 67.817 5.84769 67.797 6.06225 67.7333C6.27682 67.6695 6.47639 67.5634 6.64911 67.421L11.5907 63.6054C11.7721 63.4742 11.9253 63.3079 12.0411 63.1164C12.157 62.9249 12.2332 62.7121 12.2652 62.4905C12.2972 62.269 12.2844 62.0433 12.2275 61.8268C12.1705 61.6104 12.0707 61.4075 11.9339 61.2304C11.797 61.0533 11.626 60.9054 11.4309 60.7957C11.2359 60.6859 11.0207 60.6165 10.7983 60.5915C10.5759 60.5665 10.3507 60.5865 10.1361 60.6502C9.92157 60.7139 9.722 60.8201 9.54927 60.9625Z" fill="#436FC0"/>
</svg>
