<svg width="93" height="111" viewBox="0 0 93 111" fill="none" xmlns="http://www.w3.org/2000/svg">
<path d="M78.3143 31.7985H14.377L27.3593 18.4609H65.5756L78.3143 31.7985Z" stroke="#436FC0" stroke-width="3.4" stroke-miterlimit="10" stroke-linecap="round" stroke-linejoin="round"/>
<path d="M67.2967 45.6418L78.3141 31.7988H14.377L46.4674 71.8125L63.0048 51.0326" stroke="#436FC0" stroke-width="3.4" stroke-miterlimit="10" stroke-linecap="round" stroke-linejoin="round"/>
<path d="M27.3574 18.4609L36.9116 31.7985L46.4655 18.4609L55.9416 31.7985L65.5737 18.4609" stroke="#436FC0" stroke-width="3.4" stroke-miterlimit="10" stroke-linecap="round" stroke-linejoin="round"/>
<path d="M36.9121 31.7988L46.466 71.811L55.9421 31.7988" stroke="#436FC0" stroke-width="3.4" stroke-miterlimit="10" stroke-linecap="round" stroke-linejoin="round"/>
<path d="M46.4658 1.78906V8.45783" stroke="#436FC0" stroke-width="3.4" stroke-miterlimit="10" stroke-linecap="round" stroke-linejoin="round"/>
<path d="M33.3955 4.20117L35.574 10.4677" stroke="#436FC0" stroke-width="3.4" stroke-miterlimit="10" stroke-linecap="round" stroke-linejoin="round"/>
<path d="M59.5378 4.20117L57.3594 10.4677" stroke="#436FC0" stroke-width="3.4" stroke-miterlimit="10" stroke-linecap="round" stroke-linejoin="round"/>
<path d="M44.7031 94.1693H62.0959C64.3573 94.1693 66.5739 92.4297 67.218 90.1426" stroke="#436FC0" stroke-width="3.4" stroke-miterlimit="10" stroke-linecap="round" stroke-linejoin="round"/>
<path d="M80.6109 93.2634L89.2846 85.3091C91.3432 83.4243 91.6775 79.8797 89.8915 77.6041C88.0193 75.2125 84.6442 74.8797 82.3785 76.8635L67.2191 90.142C67.3729 89.6031 67.4488 89.0319 67.4365 88.4394C67.377 85.3865 64.9124 82.982 61.9965 82.982H48.3523C46.0886 82.982 43.8678 82.2478 42.0654 80.8137C39.6725 78.9115 36.6889 77.7802 33.4513 77.7802C29.8997 77.7802 26.6498 79.1413 24.1543 81.3935C22.9957 82.439 21.5009 82.9822 19.9711 82.9822H14.6582V104.913H21.7037C22.3229 104.913 22.9401 105.007 23.5328 105.194L32.7602 108.099C34.4724 108.638 36.2523 108.912 38.0402 108.912H60.1201C62.3286 108.912 64.4609 108.073 66.1221 106.551L75.5646 97.8901" stroke="#436FC0" stroke-width="3.4" stroke-miterlimit="10" stroke-linecap="round" stroke-linejoin="round"/>
<path d="M1.91797 96.9942V108.912H14.6578V78.9023H1.91797V89.9782" stroke="#436FC0" stroke-width="3.4" stroke-miterlimit="10" stroke-linecap="round" stroke-linejoin="round"/>
<path d="M8.28906 90.5727V87.2383" stroke="#436FC0" stroke-width="3.4" stroke-miterlimit="10" stroke-linecap="round" stroke-linejoin="round"/>
</svg>
