<svg width="715" height="676" viewBox="0 0 715 676" fill="none" xmlns="http://www.w3.org/2000/svg">
<path d="M658.541 643.924C646.004 657.65 631.264 667.987 615.169 675.612H108.09C78.6108 664.089 53.0281 645.957 35.9165 614.777C2.37106 553.094 7.45371 479.38 57.4331 428.204C84.71 400.243 130.623 382.45 159.086 354.32C236.681 277.555 211.098 200.452 246.846 128.602C293.099 35.3999 421.52 -11.7094 515.719 37.7723C596.533 80.1368 622.624 177.914 608.392 262.643C605.004 282.978 594.5 303.821 596.533 324.834C601.954 378.722 664.471 399.057 684.971 444.472C713.772 508.188 706.657 591.222 658.541 643.924Z" fill="#BED8FA"/>
<path d="M38.9653 94.0318V177.914C38.9653 235.529 68.4447 289.078 117.069 320.089L188.734 365.673L260.399 320.089C309.023 289.247 338.503 235.529 338.503 177.914V94.0318C282.085 94.0318 230.073 74.8831 188.734 42.686C147.395 74.7136 95.5521 94.0318 38.9653 94.0318Z" fill="#4192F2"/>
<path d="M126.217 305.515C82.1676 277.724 55.9072 229.937 55.9072 177.744V110.3C103.854 107.249 149.259 91.3204 188.734 63.5293C228.209 91.151 273.614 107.249 321.56 110.3V177.744C321.56 229.768 295.3 277.555 251.42 305.515L188.734 345.338L126.217 305.515Z" fill="#307AD1"/>
<path d="M321.73 177.744C321.73 229.767 295.469 277.554 251.589 305.515L188.903 345.338L126.217 305.515C82.1676 277.724 55.9072 229.937 55.9072 177.744" stroke="#153E5F" stroke-width="0.75" stroke-miterlimit="10" stroke-linecap="round" stroke-linejoin="round"/>
<path d="M236.512 177.744H225.161V157.24C225.161 137.244 208.896 120.806 188.735 120.806C168.743 120.976 152.479 137.244 152.479 157.24V177.744H141.127V157.24C141.127 130.974 162.475 109.453 188.904 109.453C215.165 109.453 236.681 130.804 236.681 157.24V177.744H236.512Z" fill="#326290"/>
<path d="M127.566 264.337H250.058V171.983H127.566L127.566 264.337Z" fill="#FDC563"/>
<path d="M188.967 264.337H250.128V171.983H188.967V264.337Z" fill="#F2A941"/>
<path d="M188.734 224.006C194.91 224.006 199.916 218.998 199.916 212.821C199.916 206.645 194.91 201.637 188.734 201.637C182.559 201.637 177.552 206.645 177.552 212.821C177.552 218.998 182.559 224.006 188.734 224.006Z" fill="#153E5F"/>
<path d="M200.086 246.374H177.552L184.668 222.989H192.97L200.086 246.374Z" fill="#153E5F"/>
<path d="M639.058 63.6997H495.558V224.854H639.058V63.6997Z" fill="white"/>
<path d="M630.628 216.354V72.1455L504.07 72.1455V216.354L630.628 216.354Z" fill="#D6E9FC"/>
<path d="M592.467 124.705C601.824 124.705 609.409 117.118 609.409 107.759C609.409 98.3999 601.824 90.813 592.467 90.813C583.11 90.813 575.525 98.3999 575.525 107.759C575.525 117.118 583.11 124.705 592.467 124.705Z" fill="#BED8FA"/>
<path d="M630.587 144.361V209.603H558.752V168.255C565.19 166.899 571.289 163.68 576.202 158.935C587.723 148.09 603.479 141.82 620.76 142.836C624.318 143.175 627.537 143.684 630.587 144.361Z" fill="#8DB9F0"/>
<path d="M630.587 163.341V216.381H504.029V137.583C533.847 133.855 550.958 145.717 562.818 158.427C574 170.289 590.095 174.017 602.971 167.747C609.748 164.527 620.252 161.985 630.587 163.341Z" fill="#BED8FA"/>
<mask id="mask0_115_45" style="mask-type:luminance" maskUnits="userSpaceOnUse" x="0" y="386" width="311" height="290">
<path d="M310.211 386.178H0V675.782H310.211V386.178Z" fill="white"/>
</mask>
<g mask="url(#mask0_115_45)">
<path d="M99.1116 417.19C94.0289 412.784 83.6942 403.634 87.252 398.55C90.9793 393.127 103.347 400.583 108.769 404.65C120.459 413.123 129.777 424.816 135.707 436.678L136.215 437.864L134.86 437.356C122.661 433.119 109.785 426.172 99.1116 417.19Z" fill="#8DB9F0"/>
<path d="M121.305 457.013C134.859 460.063 145.702 457.86 156.714 456.505C145.871 449.557 128.929 440.575 114.698 438.034C109.615 437.186 101.144 438.034 101.314 442.44C101.314 449.218 114.867 455.488 121.305 457.013Z" fill="#8DB9F0"/>
<path d="M153.666 420.749C158.918 434.475 157.562 445.659 156.715 456.674C149.43 446.167 138.756 430.069 133.335 416.173C131.471 411.259 130.285 402.447 134.86 401.939C141.806 400.922 151.294 414.14 153.666 420.749Z" fill="#8DB9F0"/>
<path d="M154.004 488.193C160.612 490.226 166.711 490.735 172.471 490.735C178.231 490.735 183.822 490.226 189.244 490.057C178.909 482.431 162.475 472.433 148.413 468.875C143.331 467.688 134.86 467.858 134.69 472.264C134.521 479.042 147.566 486.329 154.004 488.193Z" fill="#8DB9F0"/>
<path d="M188.735 453.962C190.938 460.91 191.446 467.18 191.277 473.111C191.107 479.042 190.091 484.634 189.413 490.057C182.806 479.042 173.148 462.435 168.574 448.031C167.049 442.948 166.541 434.136 171.115 433.797C178.062 433.288 186.702 447.184 188.735 453.962Z" fill="#8DB9F0"/>
<path d="M184.67 521.238C197.546 526.152 208.728 525.305 219.74 525.474C210.083 517.001 194.327 505.986 180.604 501.58C175.521 500.055 167.22 499.716 166.711 504.122C165.864 510.901 178.401 519.035 184.67 521.238Z" fill="#8DB9F0"/>
<path d="M221.604 489.548C224.992 503.952 222.112 514.798 219.74 525.643C213.98 514.12 205.34 497.005 201.951 482.262C200.765 477.009 200.765 468.366 205.34 468.366C212.286 468.197 219.91 482.77 221.604 489.548Z" fill="#8DB9F0"/>
<path d="M212.625 556.315C219.063 559.196 224.823 560.721 230.414 561.568C236.174 562.415 241.765 562.754 247.187 563.263C242.612 558.687 236.683 553.434 230.244 548.52C223.637 543.775 216.691 539.2 209.914 536.658C205.001 534.794 196.699 533.946 195.852 538.183C195.174 541.572 197.885 545.3 201.443 548.689C205.17 552.078 209.575 554.959 212.625 556.315Z" fill="#8DB9F0"/>
<path d="M251.761 527.507C252.947 534.624 252.608 541.064 251.592 546.995C250.575 552.756 248.881 558.009 247.356 563.432C244.984 557.501 241.935 550.045 239.224 542.25C236.344 534.455 234.141 526.151 232.786 518.865C231.939 513.611 232.616 504.799 237.191 505.138C240.749 505.308 244.137 509.205 246.848 513.95C249.389 518.526 251.253 523.948 251.761 527.507Z" fill="#8DB9F0"/>
<path d="M237.529 593.426C243.459 596.815 249.219 598.679 254.81 600.035C260.401 601.391 265.822 602.238 271.244 603.424C267.178 598.51 261.926 592.579 255.657 587.156C249.727 581.733 242.95 576.819 236.512 573.599C231.938 571.227 223.636 569.871 222.45 574.108C221.603 577.327 223.806 581.394 227.025 584.953C230.583 588.512 234.818 591.731 237.529 593.426Z" fill="#8DB9F0"/>
<path d="M279.037 568.007C279.545 575.463 278.698 581.564 277.173 587.326C275.479 593.087 273.277 598.171 271.244 603.424C269.38 597.324 267.177 589.528 264.975 581.564C263.111 573.43 261.248 565.127 260.57 557.67C260.231 552.248 261.417 543.605 265.992 544.283C269.549 544.792 272.599 549.028 274.801 553.942C277.512 558.687 278.868 564.449 279.037 568.007Z" fill="#8DB9F0"/>
<path d="M258.707 632.232C264.467 636.129 269.719 638.671 275.141 640.535C280.562 642.569 286.153 643.755 291.236 645.45C287.847 640.027 282.765 633.757 277.513 627.657C271.922 621.726 265.992 616.133 259.723 612.405C255.318 609.694 247.186 607.491 245.661 611.558C244.475 614.778 246.339 618.845 249.389 622.742C252.269 626.809 255.996 630.368 258.707 632.232Z" fill="#8DB9F0"/>
<path d="M302.757 611.05C302.757 618.336 300.893 624.776 298.86 630.198C296.657 635.791 294.116 640.535 291.405 645.45C290.219 639.18 288.525 631.385 287.509 623.081C286.153 614.947 285.306 606.305 285.306 598.849C285.306 593.426 287.509 584.953 291.914 585.97C295.302 586.817 298.182 591.223 300.046 596.476C301.909 601.73 302.757 607.661 302.757 611.05Z" fill="#8DB9F0"/>
<path d="M135.029 436.677C144.008 444.642 164.847 463.113 189.074 489.548C213.132 515.814 240.748 550.045 262.772 587.664C273.785 606.474 283.611 625.962 291.405 645.28C299.368 664.598 304.958 683.578 309.194 701.032C309.702 702.896 310.041 704.76 310.38 706.624" stroke="#8DB9F0" stroke-width="0.6419" stroke-miterlimit="10" stroke-linecap="round" stroke-linejoin="round"/>
<path d="M26.7684 524.118C20.4998 521.576 7.79322 516.153 9.65686 510.222C11.5205 503.952 25.5825 507.002 32.0205 509.205C45.7437 513.611 58.4503 521.576 67.5991 530.896L68.6156 531.913H67.2602C54.0453 531.743 39.8139 529.201 26.7684 524.118Z" fill="#8DB9F0"/>
<path d="M60.4838 554.789C74.2069 553.433 83.864 547.841 93.8598 543.097C81.4921 539.877 62.5168 536.827 48.116 539.03C42.8639 539.877 35.24 543.266 36.7647 547.502C38.9672 553.772 53.8763 555.467 60.4838 554.789Z" fill="#8DB9F0"/>
<path d="M79.6283 510.052C88.9465 521.406 91.149 532.421 94.0291 543.097C83.6944 535.471 68.4465 523.609 58.9589 512.086C55.5704 508.019 51.8432 500.054 55.9093 498.021C62.0085 494.971 75.2233 504.46 79.6283 510.052Z" fill="#8DB9F0"/>
<path d="M101.484 573.769C108.43 573.599 114.36 572.244 119.781 570.38C125.203 568.685 130.285 566.313 135.537 564.279C123.339 560.212 104.533 556.145 90.1324 557.162C84.8803 557.67 77.0869 560.551 78.2729 564.788C80.1365 571.396 94.7068 574.108 101.484 573.769Z" fill="#8DB9F0"/>
<path d="M123.34 530.387C127.575 536.318 130.117 542.08 131.811 547.672C133.505 553.433 134.352 558.856 135.538 564.279C125.881 555.975 111.311 543.266 102.501 531.065C99.4512 526.659 96.2322 518.525 100.298 516.831C106.906 514.289 119.274 524.626 123.34 530.387Z" fill="#8DB9F0"/>
<path d="M140.959 595.459C154.682 595.967 165.017 591.561 175.521 588.342C163.662 583.427 145.195 578.005 130.794 578.174C125.542 578.344 117.579 580.716 118.426 584.953C119.951 591.731 134.352 595.29 140.959 595.459Z" fill="#8DB9F0"/>
<path d="M165.864 553.603C173.657 566.143 174.335 577.327 175.69 588.342C166.542 579.191 152.988 565.634 145.025 552.925C142.145 548.349 139.434 540.046 143.839 538.69C150.277 536.318 162.137 547.672 165.864 553.603Z" fill="#8DB9F0"/>
<path d="M178.74 619.861C185.687 620.539 191.616 620.2 197.377 619.184C203.137 618.167 208.559 616.642 213.811 615.455C208.05 612.575 200.765 609.355 192.972 606.813C185.178 604.441 177.216 602.238 169.931 601.899C164.678 601.56 156.546 603.424 157.054 607.83C157.563 611.219 161.29 613.93 165.695 615.964C170.269 618.167 175.352 619.522 178.74 619.861Z" fill="#8DB9F0"/>
<path d="M206.695 580.039C210.253 586.478 211.778 592.748 212.625 598.51C213.472 604.441 213.641 609.863 213.811 615.456C209.575 610.541 204.323 604.61 199.41 598.001C194.327 591.562 189.414 584.445 185.856 577.836C183.315 573.091 181.282 564.618 185.687 563.432C189.075 562.585 193.48 565.126 197.546 568.685C201.443 572.244 205.001 576.819 206.695 580.039Z" fill="#8DB9F0"/>
<path d="M214.149 646.974C220.757 648.33 227.025 648.161 232.786 647.822C238.546 647.483 243.968 646.466 249.389 645.788C243.968 642.399 237.021 638.501 229.567 635.282C222.112 632.062 214.149 629.52 207.034 628.503C201.951 627.656 193.649 629.012 193.819 633.418C193.988 636.637 197.377 639.857 201.612 642.229C205.848 644.602 210.93 646.296 214.149 646.974Z" fill="#8DB9F0"/>
<path d="M245.322 609.694C248.203 616.642 249.389 622.742 249.727 628.673C250.066 634.604 249.558 640.196 249.219 645.789C245.492 640.535 240.918 633.927 236.343 626.979C231.938 619.862 227.533 612.744 224.484 605.797C222.451 600.713 220.926 592.24 225.331 591.393C228.889 590.715 233.124 593.765 236.851 597.663C240.918 601.391 244.137 606.305 245.322 609.694Z" fill="#8DB9F0"/>
<path d="M246.509 677.139C253.116 679.003 258.877 679.85 264.807 679.85C270.567 680.019 276.158 679.511 281.749 679.511C276.835 675.444 270.059 671.038 263.112 666.971C255.827 663.243 248.542 659.684 241.426 658.159C236.344 656.973 228.042 657.481 227.873 661.887C227.703 665.276 230.922 668.496 234.819 671.377C238.716 673.919 243.459 676.122 246.509 677.139Z" fill="#8DB9F0"/>
<path d="M281.409 643.077C283.781 650.024 284.12 656.633 283.781 662.564C283.442 668.495 282.595 673.918 281.579 679.51C278.529 673.918 274.463 666.97 270.905 659.514C267.008 652.227 263.62 644.263 261.248 637.146C259.554 632.062 258.876 623.25 263.45 622.911C267.008 622.572 271.074 625.961 274.463 630.198C277.682 634.434 280.393 639.687 281.409 643.077Z" fill="#8DB9F0"/>
<path d="M66.9219 531.065C77.9343 535.81 103.686 546.656 134.86 563.94C166.034 581.225 202.967 604.78 235.835 633.588C252.269 647.822 267.686 663.412 281.41 679.172C289.372 688.323 296.488 697.473 302.926 706.624" stroke="#8DB9F0" stroke-width="0.6419" stroke-miterlimit="10" stroke-linecap="round" stroke-linejoin="round"/>
</g>
<path d="M699.541 499.376C699.541 362.285 603.818 285.351 485.562 285.351C367.475 285.351 271.921 367.029 271.752 503.951C217.706 587.833 228.549 665.953 284.289 675.782H664.302C726.14 665.614 721.905 584.105 699.541 499.376Z" fill="#FDC563"/>
<path d="M599.752 448.2C596.702 402.277 581.116 350.761 534.694 324.495C517.582 314.836 497.591 309.244 477.26 309.244C423.045 309.244 381.198 345.847 365.442 389.567C358.665 408.547 355.615 428.373 353.582 448.2C351.549 468.365 341.045 486.497 324.95 498.868C319.867 502.765 317.326 507.68 317.326 512.255C317.326 530.217 366.289 551.061 449.475 551.061C519.785 551.061 557.397 541.402 577.558 531.573C592.128 524.625 598.227 511.747 599.752 497.851C601.616 481.583 600.768 464.468 599.752 448.2Z" fill="#F2A941"/>
<path d="M360.867 367.707L403.901 370.249L370.694 388.55L385.942 320.259C388.991 306.702 403.053 295.687 416.607 298.737C430.161 301.788 438.124 317.717 435.244 331.273L419.996 399.565L418.64 405.835C416.268 416.68 405.425 423.628 394.413 421.256C391.702 420.578 388.991 419.392 386.789 417.866L352.058 392.448C345.958 388.042 344.772 379.569 349.177 373.468C352.058 369.401 356.463 367.537 360.867 367.707Z" fill="#C46458"/>
<path d="M437.277 331.613L433.719 347.542L380.351 336.527L384.079 319.751C386.959 306.533 399.327 296.027 412.033 296.027C413.727 296.027 415.422 296.196 417.116 296.535C431.347 299.755 440.835 316.192 437.277 331.613Z" fill="#4192F2"/>
<path d="M544.69 429.051L538.421 393.804L540.454 292.637C519.616 282.809 494.541 277.047 474.719 277.555C454.897 278.064 430.33 285.689 409.83 296.026L410.339 323.818C408.983 327.715 406.103 335.68 404.917 338.56C399.496 351.778 397.124 366.521 411.355 374.655L411.694 393.804L405.425 429.051H544.69Z" fill="#4192F2"/>
<path d="M410.169 323.987C408.814 327.884 405.933 335.849 404.748 338.73C399.326 351.947 396.954 366.69 411.186 374.824" stroke="#153E5F" stroke-width="0.6075" stroke-miterlimit="10" stroke-linecap="round" stroke-linejoin="round"/>
<path d="M475.735 295.348C468.958 298.06 461.334 297.043 457.268 295.179C452.693 292.976 448.458 288.4 448.289 283.147L447.441 254.339H486.408L488.78 279.758C489.458 287.892 483.189 292.467 475.735 295.348Z" fill="#C46458"/>
<path d="M480.309 254.509C480.309 277.216 470.314 289.756 452.524 291.959C450.152 289.587 448.289 286.536 448.289 283.317L447.442 254.678H480.309V254.509Z" fill="#153E5F"/>
<path d="M439.817 162.832C466.924 158.934 488.271 178.252 492.168 205.366L493.185 212.144C498.267 246.883 479.631 278.402 444.899 283.486C425.416 286.367 407.457 272.81 404.577 253.492L397.97 219.261C393.903 191.979 412.709 166.729 439.817 162.832Z" fill="#C46458"/>
<mask id="mask1_115_45" style="mask-type:luminance" maskUnits="userSpaceOnUse" x="397" y="162" width="98" height="122">
<path d="M439.817 162.831C466.924 158.934 488.271 178.252 492.168 205.365L493.185 212.144C498.267 246.883 479.631 278.402 444.899 283.485C425.416 286.366 407.457 272.81 404.577 253.491L397.97 219.261C393.903 191.978 412.709 166.729 439.817 162.831Z" fill="white"/>
</mask>
<g mask="url(#mask1_115_45)">
<path d="M448.628 242.477C449.305 247.561 454.219 251.289 459.301 250.442C464.384 249.764 468.111 244.85 467.264 239.766C466.586 234.682 461.673 230.954 456.591 231.802C451.508 232.479 447.95 237.394 448.628 242.477Z" fill="#B54B3E"/>
<path d="M397.971 249.933C398.648 255.017 403.562 258.745 408.644 257.898C413.727 257.22 417.454 252.306 416.607 247.222C415.929 242.138 411.016 238.41 405.934 239.258C400.851 239.935 397.293 244.68 397.971 249.933Z" fill="#B54B3E"/>
</g>
<path d="M424.739 255.525C429.313 262.304 434.226 266.032 438.293 264.845C442.189 263.659 444.392 257.728 444.222 249.594L424.739 255.525Z" fill="white"/>
<path d="M430.668 249.425L422.028 245.697C426.771 238.918 426.941 230.446 426.094 225.362" stroke="#153E5F" stroke-width="0.3198" stroke-miterlimit="10" stroke-linecap="round" stroke-linejoin="round"/>
<path d="M453.032 213.329C450.999 211.635 448.458 210.788 445.747 210.788C443.036 210.957 440.495 211.974 438.631 213.838" stroke="#153E5F" stroke-width="3" stroke-miterlimit="10" stroke-linecap="round" stroke-linejoin="round"/>
<path d="M417.961 216.719C415.759 215.533 412.879 215.194 410.337 215.872C407.627 216.55 405.424 218.244 404.069 220.278" stroke="#153E5F" stroke-width="3" stroke-miterlimit="10" stroke-linecap="round" stroke-linejoin="round"/>
<path d="M454.218 227.057C453.371 223.667 449.813 221.464 446.425 222.312C443.036 223.159 440.834 226.718 441.681 230.107" stroke="#153E5F" stroke-width="3" stroke-miterlimit="10" stroke-linecap="round" stroke-linejoin="round"/>
<path d="M453.032 226.378L457.437 220.278L450.491 223.328L453.032 226.378Z" fill="#153E5F"/>
<path d="M406.78 234.004C406.611 230.445 409.322 227.395 412.879 227.226C416.437 227.056 419.487 229.768 419.656 233.326" stroke="#153E5F" stroke-width="3" stroke-miterlimit="10" stroke-linecap="round" stroke-linejoin="round"/>
<path d="M407.796 232.987L401.867 228.412L409.321 229.259L407.796 232.987Z" fill="#153E5F"/>
<path d="M508.602 201.807C518.259 196.554 512.838 180.625 502.334 182.15C510.296 173.338 498.606 160.121 489.457 165.713C494.371 154.19 478.106 146.733 471.668 155.037C471.668 144.022 454.557 141.48 451.168 151.648C446.594 141.141 431.176 144.869 430.838 154.867C423.552 145.717 408.982 154.698 412.371 164.526C402.714 158.595 392.548 170.796 397.97 179.1C397.123 178.93 396.106 178.761 395.09 178.761C384.077 178.591 381.197 194.69 389.838 198.926C388.143 199.435 386.619 200.282 385.433 201.638C380.689 206.552 382.383 217.567 390.346 219.261C386.28 226.209 387.805 237.563 400.85 235.868L397.631 218.753C398.478 218.414 419.317 209.433 428.805 192.826C445.577 206.722 463.705 205.535 463.705 205.535C463.536 215.872 467.771 230.615 486.069 232.31C488.441 247.73 486.069 255.187 486.069 255.187C498.267 261.287 507.924 251.628 505.214 242.477C517.412 243.324 519.445 226.548 509.957 222.481C520.97 218.075 518.09 203.332 508.602 201.807Z" fill="#153E5F"/>
<path d="M395.937 203.502C396.276 198.588 397.292 193.504 399.325 188.759C401.528 184.014 404.578 179.778 408.644 176.219C416.606 169.271 427.28 165.204 437.954 165.035C448.627 164.696 459.64 168.085 468.28 174.525C472.516 177.744 476.412 181.642 479.292 186.387C480.648 188.759 481.834 191.131 482.681 193.673C483.528 196.215 484.206 198.757 484.375 201.468V201.807C484.545 202.993 483.528 204.01 482.342 204.18C481.326 204.349 480.309 203.502 480.14 202.485C478.276 193.504 472.516 185.2 464.892 179.778C457.268 174.186 447.78 170.966 437.954 170.796C428.297 170.458 418.47 173.338 410.677 179.269C406.78 182.15 403.561 185.878 401.02 190.115C398.648 194.351 397.123 199.096 396.276 203.841C396.276 204.01 396.106 204.01 395.937 204.01C396.106 203.841 395.937 203.671 395.937 203.502Z" fill="#4192F2"/>
<path d="M498.437 236.885C493.524 243.663 485.222 245.358 479.631 240.613C474.04 235.868 473.532 226.548 478.445 219.769C483.359 212.991 491.66 211.297 497.251 216.041C502.673 220.617 503.181 229.937 498.437 236.885Z" fill="#C46458"/>
<path d="M495.557 221.125C495.557 221.125 483.189 221.125 482.681 234.004L495.557 221.125Z" fill="#153E5F"/>
<path d="M498.437 236.885C493.523 243.664 485.222 245.358 479.631 240.613" stroke="#153E5F" stroke-width="0.3198" stroke-miterlimit="10" stroke-linecap="round" stroke-linejoin="round"/>
<path d="M488.442 373.299L556.55 370.757L528.256 401.09L512.839 327.037C509.959 313.48 517.922 297.721 531.475 294.84C545.029 291.959 559.091 302.805 562.141 316.361L577.558 390.414L578.405 394.651C581.116 406.852 573.322 418.714 561.124 421.425C557.058 422.273 552.822 421.934 549.265 420.747L484.546 399.057C477.599 396.684 473.872 389.228 476.244 382.28C478.277 376.858 483.19 373.469 488.442 373.299Z" fill="#C46458"/>
<path d="M518.938 372.113L556.72 370.757" stroke="#153E5F" stroke-width="0.5545" stroke-miterlimit="10" stroke-linecap="round" stroke-linejoin="round"/>
<path d="M568.579 335.341L515.211 346.355L511.145 327.376C507.757 311.956 517.244 295.688 531.306 292.637C533 292.298 534.695 292.129 536.219 292.129C549.095 292.129 561.463 302.466 564.343 315.853L568.579 335.341Z" fill="#4192F2"/>
<path d="M510.976 327.546L515.042 346.356L531.137 343.136" stroke="#153E5F" stroke-width="0.6075" stroke-miterlimit="10" stroke-linecap="round" stroke-linejoin="round"/>
<path d="M430.839 372.791C431.347 371.944 432.195 370.249 433.042 368.724C433.55 367.877 434.228 367.199 435.075 366.86C438.971 365.166 444.562 363.132 447.104 362.285C448.12 361.946 449.137 361.946 450.153 362.285L464.215 367.708L458.624 377.536L448.967 373.469C445.409 374.825 440.496 375.842 440.327 376.181C436.769 384.145 432.195 384.823 429.653 383.806C425.418 381.942 427.281 379.231 430.839 372.791Z" fill="#C46458"/>
<path d="M465.57 407.53C464.723 407.022 463.029 405.836 462.012 405.497C458.455 403.972 458.116 400.074 458.116 400.074C454.05 400.074 451.678 399.735 450.322 397.363C449.306 395.668 448.289 393.126 448.289 393.126C445.24 393.465 442.359 392.957 441.512 390.076C439.31 383.128 440.157 376.858 440.496 375.672C441.004 374.317 442.36 370.927 443.376 369.911C445.409 367.708 453.541 363.81 453.541 363.81C455.066 362.793 456.93 362.624 458.793 362.963C462.859 363.641 480.988 368.216 491.492 376.35L497.93 400.583C497.93 400.583 485.223 413.292 471.331 392.279L468.281 391.601L467.095 395.838L468.281 398.718C473.194 400.921 473.533 405.327 472.178 407.361C469.806 411.089 467.264 408.547 465.57 407.53Z" fill="#C46458"/>
<path d="M448.29 393.126C448.29 393.126 446.934 388.381 446.934 386.856C446.934 384.653 447.951 380.416 448.967 378.383C449.984 376.349 455.067 371.604 455.067 371.604" stroke="#153E5F" stroke-width="0.5545" stroke-miterlimit="10" stroke-linecap="round" stroke-linejoin="round"/>
<path d="M440.496 375.672C440.496 375.672 442.19 371.266 443.376 369.911C445.409 367.708 453.711 363.81 453.711 363.81" stroke="#153E5F" stroke-width="0.5545" stroke-miterlimit="10" stroke-linecap="round" stroke-linejoin="round"/>
<path d="M458.116 400.073C458.116 400.073 456.93 395.329 456.93 393.803C456.93 391.6 457.947 387.364 458.963 385.331C459.98 383.297 464.724 378.891 464.724 378.891" stroke="#153E5F" stroke-width="0.5545" stroke-miterlimit="10" stroke-linecap="round" stroke-linejoin="round"/>
<path d="M555.872 498.867H388.653C388.653 471.076 401.021 445.827 405.256 429.051H544.521C547.909 448.2 557.058 477.007 555.872 498.867Z" fill="#153E5F"/>
<path d="M146.209 624.097C159.763 609.354 185.515 615.455 185.515 615.455L222.449 608.337L263.11 630.028L243.119 675.782L146.209 624.097Z" fill="#153E5F"/>
<path d="M259.722 637.654C247.354 638.332 208.556 639.518 192.292 628.164C185.346 623.25 186.532 618.335 189.242 614.777L222.618 608.337L263.28 630.028L259.722 637.654Z" fill="#C46458"/>
<path d="M222.45 608.337L237.359 575.632L283.103 596.306L263.111 630.028L222.45 608.337Z" fill="#C46458"/>
<path d="M491.66 517.17C482.512 538.521 459.131 540.385 438.801 537.674C420.164 535.132 401.359 530.049 383.4 524.795L336.64 511.069L309.701 560.043C302.586 573.091 286.152 602.068 285.305 603.763L224.313 575.802C232.784 556.653 242.272 535.471 245.83 527.846L282.763 447.184C290.218 431.085 307.838 422.443 324.441 426.34C360.528 434.813 455.235 459.215 467.602 463.96C489.119 472.094 501.317 494.971 491.66 517.17Z" fill="#102E47"/>
<path d="M352.395 482.261L334.606 514.628" stroke="#A1C7F7" stroke-width="0.9113" stroke-miterlimit="10" stroke-linecap="round" stroke-linejoin="round"/>
<path d="M420.843 428.543V432.779V436.169H496.235C497.93 436.169 499.285 434.813 499.285 433.118V428.374H420.843V428.543Z" fill="#326290"/>
<path d="M431.347 428.543C431.347 430.915 429.484 432.779 427.112 432.779H420.843V428.543H431.347Z" fill="#153E5F"/>
<path d="M308.007 428.542V433.287C308.007 434.982 309.362 436.338 311.057 436.338H422.028C423.722 436.338 425.077 434.982 425.077 433.287V428.542H308.007Z" fill="#326290"/>
<path d="M425.077 428.542H308.007V432.101H425.077V428.542Z" fill="#153E5F"/>
<path d="M424.908 428.542V433.287C424.908 434.982 423.553 436.338 421.858 436.338" stroke="#153E5F" stroke-width="0.3198" stroke-miterlimit="10" stroke-linecap="round" stroke-linejoin="round"/>
<path d="M420.166 339.748L431.009 425.494C431.178 427.188 429.992 428.544 428.468 428.544H423.724L412.034 336.698H416.778C418.472 336.698 419.997 338.053 420.166 339.748Z" fill="#153E5F"/>
<path d="M308.009 428.544C306.315 428.544 304.79 427.188 304.62 425.494L293.777 339.748C293.608 338.053 294.794 336.698 296.319 336.698H413.389C415.083 336.698 416.608 338.053 416.777 339.748L427.62 425.494C427.79 427.188 426.604 428.544 425.079 428.544H308.009Z" fill="#326290"/>
<path d="M359.173 344.831H352.396C351.888 344.831 351.38 345.339 351.549 345.848C351.549 346.356 352.227 346.865 352.735 346.865H359.512C360.02 346.865 360.529 346.356 360.359 345.848C360.359 345.17 359.851 344.831 359.173 344.831Z" fill="#153E5F"/>
<path d="M286.831 675.781C291.914 656.293 317.497 649.685 317.497 649.685L346.637 625.96H392.72L396.617 675.781H286.831Z" fill="#153E5F"/>
<path d="M393.228 634.264C382.724 640.703 349.009 660.022 329.186 657.649C320.885 656.632 319.529 651.718 320.207 647.312L346.637 625.96H392.72L393.228 634.264Z" fill="#C46458"/>
<path d="M346.636 625.961L351.041 582.58L400.851 587.663L392.719 625.961H346.636Z" fill="#C46458"/>
<path d="M529.95 464.297C525.037 461.925 419.826 428.881 407.289 426C386.958 421.086 367.305 436.337 363.747 456.841L349.516 541.062L338.842 606.812L404.747 612.743L419.487 555.466L429.313 516.152C447.103 522.252 479.801 533.436 498.268 536.656C518.429 540.215 541.979 539.367 551.975 518.355C562.479 496.833 551.297 473.448 529.95 464.297Z" fill="#153E5F"/>
<path d="M524.53 501.24L420.843 468.534C411.017 512.593 389.5 610.371 389.5 610.371" stroke="#A1C7F7" stroke-width="0.9113" stroke-miterlimit="10" stroke-linecap="round" stroke-linejoin="round"/>
<path d="M434.397 495.986L428.128 521.236" stroke="#A1C7F7" stroke-width="0.9113" stroke-miterlimit="10" stroke-linecap="round" stroke-linejoin="round"/>
<path d="M18.6356 29.2988C23.3141 29.2988 27.1067 25.5054 27.1067 20.8259C27.1067 16.1465 23.3141 12.353 18.6356 12.353C13.9572 12.353 10.1646 16.1465 10.1646 20.8259C10.1646 25.5054 13.9572 29.2988 18.6356 29.2988Z" stroke="white" stroke-miterlimit="10" stroke-linecap="round" stroke-linejoin="round"/>
<path d="M45.9129 340.763C45.9129 345.339 42.1856 349.236 37.4418 349.236C32.698 349.236 28.9707 345.508 28.9707 340.763C28.9707 336.188 32.698 332.291 37.4418 332.291C42.1856 332.291 45.9129 336.019 45.9129 340.763Z" stroke="white" stroke-miterlimit="10" stroke-linecap="round" stroke-linejoin="round"/>
<path d="M365.104 280.606C365.104 285.181 361.376 289.079 356.632 289.079C351.889 289.079 348.161 285.351 348.161 280.606C348.161 276.03 351.889 272.133 356.632 272.133C361.376 272.133 365.104 275.861 365.104 280.606Z" stroke="white" stroke-miterlimit="10" stroke-linecap="round" stroke-linejoin="round"/>
<path d="M552.991 9.4729C552.991 14.0483 549.264 17.9458 544.52 17.9458C539.777 17.9458 536.049 14.2177 536.049 9.4729C536.049 4.89753 539.777 1 544.52 1C549.264 1 552.991 4.72808 552.991 9.4729Z" stroke="white" stroke-miterlimit="10" stroke-linecap="round" stroke-linejoin="round"/>
<path d="M697.339 162.324C702.017 162.324 705.81 158.53 705.81 153.851C705.81 149.171 702.017 145.378 697.339 145.378C692.66 145.378 688.868 149.171 688.868 153.851C688.868 158.53 692.66 162.324 697.339 162.324Z" stroke="white" stroke-miterlimit="10" stroke-linecap="round" stroke-linejoin="round"/>
<path d="M310.211 32.6885C314.889 32.6885 318.682 28.895 318.682 24.2156C318.682 19.5361 314.889 15.7427 310.211 15.7427C305.532 15.7427 301.74 19.5361 301.74 24.2156C301.74 28.895 305.532 32.6885 310.211 32.6885Z" stroke="white" stroke-miterlimit="10" stroke-linecap="round" stroke-linejoin="round"/>
<path d="M13.5528 428.542L7.96191 452.267L29.1396 447.183L13.5528 428.542Z" stroke="white" stroke-miterlimit="10" stroke-linecap="round" stroke-linejoin="round"/>
<path d="M674.975 281.453L674.467 305.855L694.12 296.534L674.975 281.453Z" stroke="white" stroke-miterlimit="10" stroke-linecap="round" stroke-linejoin="round"/>
<path d="M135.029 20.6572L130.624 44.5508L151.632 38.4503L135.029 20.6572Z" stroke="white" stroke-miterlimit="10" stroke-linecap="round" stroke-linejoin="round"/>
<path d="M424.232 66.2412L401.19 74.5447L416.947 89.6264L424.232 66.2412Z" stroke="white" stroke-miterlimit="10" stroke-linecap="round" stroke-linejoin="round"/>
<path d="M685.988 15.5737L671.248 35.0614L692.595 39.1284L685.988 15.5737Z" stroke="white" stroke-miterlimit="10" stroke-linecap="round" stroke-linejoin="round"/>
<path d="M18.805 228.751L3.04883 247.561L24.396 252.476L18.805 228.751Z" stroke="white" stroke-miterlimit="10" stroke-linecap="round" stroke-linejoin="round"/>
<path d="M240.578 381.433L225.838 400.921L247.185 404.818L240.578 381.433Z" stroke="white" stroke-miterlimit="10" stroke-linecap="round" stroke-linejoin="round"/>
</svg>
