<svg width="71" height="70" viewBox="0 0 71 70" fill="none" xmlns="http://www.w3.org/2000/svg">
<path d="M51.4589 70H18.7009C15.6014 70 12.6288 68.7716 10.4371 66.585C8.24544 64.3985 7.01416 61.4329 7.01416 58.3406V11.6594C7.01416 8.56712 8.24544 5.60151 10.4371 3.41495C12.6288 1.22839 15.6014 0 18.7009 0L51.4589 0C54.5585 0 57.531 1.22839 59.7227 3.41495C61.9144 5.60151 63.1457 8.56712 63.1457 11.6594V58.3406C63.1457 61.4329 61.9144 64.3985 59.7227 66.585C57.531 68.7716 54.5585 70 51.4589 70ZM18.7009 4.65938C16.84 4.65938 15.0554 5.39687 13.7395 6.70963C12.4237 8.02238 11.6845 9.80286 11.6845 11.6594V58.3406C11.6845 60.1971 12.4237 61.9776 13.7395 63.2904C15.0554 64.6031 16.84 65.3406 18.7009 65.3406H51.4589C53.3198 65.3406 55.1045 64.6031 56.4203 63.2904C57.7362 61.9776 58.4754 60.1971 58.4754 58.3406V11.6594C58.4754 9.80286 57.7362 8.02238 56.4203 6.70963C55.1045 5.39687 53.3198 4.65938 51.4589 4.65938H18.7009Z" fill="#436FC0"/>
<path d="M45.6044 28H24.555C22.6941 28 20.9095 27.2625 19.5936 25.9497C18.2778 24.6369 17.5386 22.8565 17.5386 21V16.3406C17.5386 14.4841 18.2778 12.7036 19.5936 11.3908C20.9095 10.0781 22.6941 9.34058 24.555 9.34058H45.6044C46.5258 9.34058 47.4382 9.52164 48.2894 9.87342C49.1407 10.2252 49.9142 10.7408 50.5657 11.3908C51.2173 12.0408 51.7341 12.8125 52.0867 13.6618C52.4393 14.5111 52.6208 15.4213 52.6208 16.3406V21C52.6208 22.8565 51.8816 24.6369 50.5657 25.9497C49.2499 27.2625 47.4652 28 45.6044 28ZM24.555 14C23.9328 14 23.336 14.2466 22.8961 14.6855C22.4561 15.1245 22.2089 15.7198 22.2089 16.3406V21C22.2089 21.6207 22.4561 22.2161 22.8961 22.655C23.336 23.094 23.9328 23.3406 24.555 23.3406H45.6044C46.2266 23.3406 46.8233 23.094 47.2633 22.655C47.7033 22.2161 47.9505 21.6207 47.9505 21V16.3406C47.9505 15.7198 47.7033 15.1245 47.2633 14.6855C46.8233 14.2466 46.2266 14 45.6044 14H24.555Z" fill="#436FC0"/>
<path d="M29.2253 45.5H22.2089C20.972 45.4942 19.7875 45.0015 18.9129 44.1289C18.0382 43.2564 17.5443 42.0746 17.5386 40.8406V36.1594C17.5443 34.9254 18.0382 33.7436 18.9129 32.8711C19.7875 31.9985 20.972 31.5058 22.2089 31.5H29.2253C30.4622 31.5058 31.6468 31.9985 32.5214 32.8711C33.396 33.7436 33.8899 34.9254 33.8957 36.1594V40.8187C33.8957 42.0565 33.4043 43.2439 32.5291 44.1212C31.6539 44.9985 30.466 45.4942 29.2253 45.5ZM22.2089 36.1594V40.8187H29.2253V36.1594H22.2089Z" fill="#436FC0"/>
<path d="M47.9504 45.5H40.934C39.6971 45.4942 38.5126 45.0015 37.6379 44.1289C36.7633 43.2564 36.2694 42.0746 36.2637 40.8406V36.1594C36.2694 34.9254 36.7633 33.7436 37.6379 32.8711C38.5126 31.9985 39.6971 31.5058 40.934 31.5H47.9504C49.1873 31.5058 50.3719 31.9985 51.2465 32.8711C52.1211 33.7436 52.615 34.9254 52.6208 36.1594V40.8187C52.6208 42.0565 52.1294 43.2439 51.2542 44.1212C50.379 44.9985 49.1911 45.4942 47.9504 45.5ZM40.934 36.1594V40.8187H47.9504V36.1594H40.934Z" fill="#436FC0"/>
<path d="M29.2253 61.8406H22.2089C20.9682 61.8348 19.7804 61.339 18.9051 60.4618C18.0299 59.5845 17.5386 58.3971 17.5386 57.1593V52.4999C17.5443 51.266 18.0382 50.0842 18.9129 49.2116C19.7875 48.3391 20.972 47.8463 22.2089 47.8406H29.2253C30.466 47.8406 31.6562 48.3308 32.5355 49.2039C33.4149 50.0771 33.9118 51.2622 33.9176 52.4999V57.1593C33.9176 58.4009 33.4232 59.5916 32.5433 60.4695C31.6633 61.3474 30.4698 61.8406 29.2253 61.8406ZM22.2089 52.4999V57.1593H29.2253V52.4999H22.2089Z" fill="#436FC0"/>
<path d="M47.9504 61.8406H40.934C39.6971 61.8348 38.5126 61.3421 37.6379 60.4695C36.7633 59.597 36.2694 58.4152 36.2637 57.1812V52.4999C36.2694 51.266 36.7633 50.0842 37.6379 49.2116C38.5126 48.3391 39.6971 47.8463 40.934 47.8406H47.9504C49.1873 47.8463 50.3719 48.3391 51.2465 49.2116C52.1211 50.0842 52.615 51.266 52.6208 52.4999V57.1593C52.6208 58.3971 52.1294 59.5845 51.2542 60.4618C50.379 61.339 49.1911 61.8348 47.9504 61.8406ZM40.934 52.4999V57.1593H47.9504V52.4999H40.934Z" fill="#436FC0"/>
</svg>
