<svg width="55" height="55" viewBox="0 0 55 55" fill="none" xmlns="http://www.w3.org/2000/svg">
<path d="M2.54736 30.9614H28.3049V34.9056H2.54736V30.9614Z" stroke="white" stroke-width="2" stroke-miterlimit="10" stroke-linecap="round" stroke-linejoin="round"/>
<path d="M4.80127 34.9053H26.0513V51.8087H4.80127V34.9053Z" stroke="white" stroke-width="2" stroke-miterlimit="10" stroke-linecap="round" stroke-linejoin="round"/>
<path d="M18.4846 13.8969C18.4846 16.6336 16.3113 20.0143 13.5746 20.0143C10.8378 20.0143 8.66455 16.6336 8.66455 13.8969C8.66455 11.1601 10.8378 8.98682 13.5746 8.98682C16.3113 8.98682 18.4846 11.1601 18.4846 13.8969Z" stroke="white" stroke-width="2" stroke-miterlimit="10" stroke-linecap="round" stroke-linejoin="round"/>
<path d="M11.1603 19.0483V20.0142C11.1603 21.3021 10.1139 22.6705 8.90649 22.9925C6.89418 23.4754 5.44531 25.3267 5.44531 27.4196V31.0417H21.7048V27.4196C21.7048 25.3267 20.2559 23.4754 18.2436 22.9925C16.9557 22.6705 15.9898 21.3826 15.9898 20.0142V19.0483" stroke="white" stroke-width="2" stroke-miterlimit="10" stroke-linecap="round" stroke-linejoin="round"/>
<path d="M16.7944 28.2246V30.9613" stroke="white" stroke-width="2" stroke-miterlimit="10" stroke-linecap="round" stroke-linejoin="round"/>
<path d="M10.2744 28.2246V30.9613" stroke="white" stroke-width="2" stroke-miterlimit="10" stroke-linecap="round" stroke-linejoin="round"/>
<path d="M43.0352 20.1753H38.3667C37.6422 20.1753 36.9178 20.4973 36.4348 20.9802L31.9273 25.4878H26.4538C25.6489 25.4878 24.8439 26.1317 24.7634 26.9367C24.6829 27.9026 25.4074 28.7075 26.3733 28.7075H33.9396L37.1593 25.4878V32.9736H32.8932C31.7663 32.9736 30.8004 33.9395 30.8004 35.0664V48.4281C30.8004 49.394 31.5248 50.1185 32.4907 50.1185C33.4566 50.1185 34.181 49.394 34.181 48.4281V37.1592H41.8278C44.0011 37.1592 45.772 35.3884 45.772 33.2151V32.9736V22.912C45.772 21.3827 44.5646 20.1753 43.0352 20.1753Z" stroke="white" stroke-width="2" stroke-miterlimit="10" stroke-linecap="round" stroke-linejoin="round"/>
<path d="M37.6421 50.9235V40.379H48.9915V26.6953H52.4527V43.3572H40.7008V50.9235H37.6421Z" stroke="white" stroke-width="2" stroke-miterlimit="10" stroke-linecap="round" stroke-linejoin="round"/>
<path d="M40.7008 43.3571V50.9234H37.6421V40.3789" stroke="white" stroke-width="2" stroke-miterlimit="10" stroke-linecap="round" stroke-linejoin="round"/>
<path d="M52.4528 43.3569V50.9232H49.394V43.3569" stroke="white" stroke-width="2" stroke-miterlimit="10" stroke-linecap="round" stroke-linejoin="round"/>
<path d="M44.8057 13.1726C44.8057 15.3459 43.0349 17.1168 40.8616 17.1168C38.6883 17.1168 36.9175 15.3459 36.9175 13.1726C36.9175 10.9993 38.6883 9.22852 40.8616 9.22852C43.0349 9.22852 44.8057 10.9993 44.8057 13.1726Z" stroke="white" stroke-width="2" stroke-miterlimit="10" stroke-linecap="round" stroke-linejoin="round"/>
<path d="M33.054 3.19141H21.946C21.2216 3.19141 20.5776 3.83535 20.5776 4.55978V10.8382C20.5776 11.5626 21.2216 12.2066 21.946 12.2066H23.2339V15.7482L26.7756 12.2066H33.054C33.7784 12.2066 34.4223 11.5626 34.4223 10.8382V4.55978C34.4223 3.75485 33.8589 3.19141 33.054 3.19141Z" stroke="white" stroke-width="2" stroke-miterlimit="10" stroke-linecap="round" stroke-linejoin="round"/>
<path d="M2.54736 30.9614H28.3049V34.9056H2.54736V30.9614Z" stroke="white" stroke-width="2" stroke-miterlimit="10" stroke-linecap="round" stroke-linejoin="round"/>
<path d="M4.80127 34.9053H26.0513V51.8087H4.80127V34.9053Z" stroke="white" stroke-width="2" stroke-miterlimit="10" stroke-linecap="round" stroke-linejoin="round"/>
<path d="M18.4846 13.8969C18.4846 16.6336 16.3113 20.0143 13.5746 20.0143C10.8378 20.0143 8.66455 16.6336 8.66455 13.8969C8.66455 11.1601 10.8378 8.98682 13.5746 8.98682C16.3113 8.98682 18.4846 11.1601 18.4846 13.8969Z" stroke="white" stroke-width="2" stroke-miterlimit="10" stroke-linecap="round" stroke-linejoin="round"/>
<path d="M11.1603 19.0483V20.0142C11.1603 21.3021 10.1139 22.6705 8.90649 22.9925C6.89418 23.4754 5.44531 25.3267 5.44531 27.4196V31.0417H21.7048V27.4196C21.7048 25.3267 20.2559 23.4754 18.2436 22.9925C16.9557 22.6705 15.9898 21.3826 15.9898 20.0142V19.0483" stroke="white" stroke-width="2" stroke-miterlimit="10" stroke-linecap="round" stroke-linejoin="round"/>
<path d="M16.7944 28.2246V30.9613" stroke="white" stroke-width="2" stroke-miterlimit="10" stroke-linecap="round" stroke-linejoin="round"/>
<path d="M10.2744 28.2246V30.9613" stroke="white" stroke-width="2" stroke-miterlimit="10" stroke-linecap="round" stroke-linejoin="round"/>
<path d="M43.0352 20.1753H38.3667C37.6422 20.1753 36.9178 20.4973 36.4348 20.9802L31.9273 25.4878H26.4538C25.6489 25.4878 24.8439 26.1317 24.7634 26.9367C24.6829 27.9026 25.4074 28.7075 26.3733 28.7075H33.9396L37.1593 25.4878V32.9736H32.8932C31.7663 32.9736 30.8004 33.9395 30.8004 35.0664V48.4281C30.8004 49.394 31.5248 50.1185 32.4907 50.1185C33.4566 50.1185 34.181 49.394 34.181 48.4281V37.1592H41.8278C44.0011 37.1592 45.772 35.3884 45.772 33.2151V32.9736V22.912C45.772 21.3827 44.5646 20.1753 43.0352 20.1753Z" stroke="white" stroke-width="2" stroke-miterlimit="10" stroke-linecap="round" stroke-linejoin="round"/>
<path d="M37.6421 50.9235V40.379H48.9915V26.6953H52.4527V43.3572H40.7008V50.9235H37.6421Z" stroke="white" stroke-width="2" stroke-miterlimit="10" stroke-linecap="round" stroke-linejoin="round"/>
<path d="M40.7008 43.3571V50.9234H37.6421V40.3789" stroke="white" stroke-width="2" stroke-miterlimit="10" stroke-linecap="round" stroke-linejoin="round"/>
<path d="M52.4528 43.3569V50.9232H49.394V43.3569" stroke="white" stroke-width="2" stroke-miterlimit="10" stroke-linecap="round" stroke-linejoin="round"/>
<path d="M44.8057 13.1726C44.8057 15.3459 43.0349 17.1168 40.8616 17.1168C38.6883 17.1168 36.9175 15.3459 36.9175 13.1726C36.9175 10.9993 38.6883 9.22852 40.8616 9.22852C43.0349 9.22852 44.8057 10.9993 44.8057 13.1726Z" stroke="white" stroke-width="2" stroke-miterlimit="10" stroke-linecap="round" stroke-linejoin="round"/>
<path d="M33.054 3.19141H21.946C21.2216 3.19141 20.5776 3.83535 20.5776 4.55978V10.8382C20.5776 11.5626 21.2216 12.2066 21.946 12.2066H23.2339V15.7482L26.7756 12.2066H33.054C33.7784 12.2066 34.4223 11.5626 34.4223 10.8382V4.55978C34.4223 3.75485 33.8589 3.19141 33.054 3.19141Z" stroke="white" stroke-width="2" stroke-miterlimit="10" stroke-linecap="round" stroke-linejoin="round"/>
</svg>
